<?xml version="1.0" standalone="no"?>
<!DOCTYPE svg PUBLIC "-//W3C//DTD SVG 20010904//EN"
 "http://www.w3.org/TR/2001/REC-SVG-20010904/DTD/svg10.dtd">
<svg version="1.0" xmlns="http://www.w3.org/2000/svg"
 width="700.000000pt" height="700.000000pt" viewBox="0 0 700.000000 700.000000"
 preserveAspectRatio="xMidYMid meet">
<metadata>
Created by potrace 1.11, written by Peter Selinger 2001-2013
</metadata>
<g transform="translate(0.000000,700.000000) scale(0.100000,-0.100000)"
fill="#000000" stroke="none">
<path d="M3195 6981 c-22 -10 -53 -31 -68 -47 -54 -54 -61 -78 -63 -224 -2
-74 -3 -138 -3 -141 -1 -3 -522 -6 -1158 -6 -637 0 -1174 -3 -1194 -6 -118
-20 -227 -120 -259 -237 -9 -33 -13 -198 -13 -640 1 -587 1 -596 22 -652 29
-74 94 -146 168 -183 l58 -30 2691 -1 c1554 -1 2712 2 2740 7 27 5 78 23 114
40 57 28 106 73 406 373 331 331 341 343 354 394 13 57 7 122 -15 162 -7 13
-163 174 -347 358 -300 300 -340 337 -403 368 -39 19 -94 37 -125 40 -30 4
-529 7 -1109 8 l-1054 1 -1 141 -1 141 -35 51 c-19 28 -52 61 -75 74 -39 22
-48 23 -315 25 -248 2 -279 1 -315 -16z"/>
<path d="M3066 4370 c-2 -3 -3 -98 -3 -213 0 -114 -3 -210 -6 -213 -3 -4 -493
-7 -1089 -8 -596 -1 -1092 -5 -1103 -8 -50 -15 -113 -44 -145 -67 -56 -40
-648 -631 -683 -681 -27 -38 -32 -55 -33 -108 -1 -44 4 -76 17 -100 19 -40
651 -676 709 -714 47 -31 83 -46 138 -59 32 -7 897 -10 2733 -10 2482 0 2689
1 2735 17 107 36 186 119 214 224 18 64 18 1196 1 1260 -27 96 -98 181 -189
223 l-47 21 -1183 2 c-651 1 -1186 5 -1190 8 -3 4 -6 102 -5 219 l2 212 -436
0 c-239 0 -436 -2 -437 -5z"/>
<path d="M3063 973 c0 -863 -2 -841 64 -905 66 -64 80 -67 369 -68 292 -1 308
2 377 68 67 65 65 46 65 910 l-1 772 -437 0 -437 0 0 -777z"/>
</g>
</svg>
